#!OML:ASF H:\GeneralSubjects\Female5\Project 1\Capture day 1\Session 1\Female5.ASF
:FULLY-SPECIFIED
:DEGREES
408
root -7.69295 15.9283 1.41013 176.095 -79.0551 -168.795
lowerback 4.47202 3.13258 1.33443
upperback -10.6255 4.1486 0.955194
thorax -14.1042 1.73211 -0.332199
lowerneck -18.4248 0.704683 1.5481
upperneck 32.9803 1.12824 -4.03709
head 14.4733 -0.21944 -1.80895
rclavicle 1.81391e-014 1.21259e-014
rhumerus -38.7827 29.3202 -85.8346
rradius 46.9982
rwrist -5.56431
rhand -26.3808 -23.7236
rfingers 7.12502
rthumb 0.177918 -53.7033
lclavicle 1.81391e-014 1.21259e-014
lhumerus -35.3221 -1.23257 78.9029
lradius 33.6293
lwrist 1.99627
lhand -26.5442 39.7759
lfingers 7.12502
lthumb 0.0201372 429.756
rfemur 14.6821 24.3396 42.0675
rtibia -6.52572
rfoot -43.7891 -31.0673
rtoes 19.506
lfemur -23.1572 -35.6697 -8.34513
ltibia 3.46935
lfoot -34.7603 -4.86599
ltoes -5.72646
409
root -7.67961 15.9233 1.40531 175.837 -79.4485 -168.557
lowerback 4.455 3.00526 1.24944
upperback -10.6263 3.97284 1.02686
thorax -14.1077 1.66303 -0.176945
lowerneck -18.4075 0.686039 1.59851
upperneck 32.7771 1.09845 -4.056
head 14.3766 -0.221646 -1.82348
rclavicle 5.2827e-014 3.65764e-014
rhumerus -37.1679 30.6065 -85.0649
rradius 47.9293
rwrist -5.344
rhand -26.8939 -23.2757
rfingers 7.12502
rthumb -0.317596 -53.2552
lclavicle 5.2827e-014 3.65764e-014
lhumerus -33.8881 -1.69736 78.862
lradius 33.643
lwrist 1.27043
lhand -26.2321 40.9294
lfingers 7.12502
lthumb 0.32158 430.909
rfemur 14.4953 23.8628 41.9161
rtibia -6.4676
rfoot -43.6077 -30.9585
rtoes 19.1118
lfemur -23.3927 -35.9637 -8.25454
ltibia 3.50534
lfoot -34.7353 -4.79444
ltoes -5.88552
410
root -7.65756 15.9204 1.40036 175.224 -79.7393 -167.934
lowerback 4.53508 2.89924 1.21876
upperback -10.6578 3.83749 1.12666
thorax -14.2079 1.60688 -0.0324825
lowerneck -18.1089 0.711765 1.95383
upperneck 32.4158 1.09366 -4.26868
head 14.1511 -0.199453 -1.95917
rclavicle -2.25621e-014 3.97569e-016
rhumerus -35.4076 31.8286 -84.1853
rradius 48.7939
rwrist -4.96841
rhand -27.1858 -23.7064
rfingers 7.12502
rthumb -0.599533 -53.6853
lclavicle -2.25621e-014 3.97569e-016
lhumerus -32.5012 -2.29967 78.8452
lradius 33.9812
lwrist 0.682452
lhand -26.1696 41.8302
lfingers 7.12502
lthumb 0.381955 431.81
rfemur 14.0955 23.0843 41.6828
rtibia -6.29619
rfoot -42.9132 -30.8993
rtoes 17.9829
lfemur -23.6679 -36.1659 -8.01445
ltibia 3.57816
lfoot -34.8093 -4.1359
ltoes -5.36148
411
root -7.63166 15.9189 1.3942 174.984 -79.8416 -167.693
lowerback 4.60132 2.8643 1.10676
upperback -10.6582 3.7891 1.21304
thorax -14.2661 1.60172 0.129388
lowerneck -17.985 0.634117 1.88053
upperneck 32.076 1.02106 -4.28968
head 13.9698 -0.233397 -1.95463
rclavicle 2.04251e-014 -1.21259e-014
rhumerus -33.5199 32.8063 -83.1769
rradius 49.605
rwrist -4.64322
rhand -28.1248 -23.7771
rfingers 7.12502
rthumb -1.50641 -53.7516
lclavicle 2.04251e-014 -1.21259e-014
lhumerus -31.0661 -2.95466 78.8429
lradius 34.564
lwrist 0.332646
lhand -26.5051 42.0384
lfingers 7.12502
lthumb 0.0578764 432.018
rfemur 13.7128 22.4345 41.4565
rtibia -6.07472
rfoot -42.2777 -30.628
rtoes 17.6354
lfemur -23.7598 -36.4103 -7.80488
ltibia 3.41993
lfoot -35.0847 -3.63554
ltoes -5.17034
412
root -7.61067 15.9139 1.39086 175.234 -79.9824 -168
lowerback 4.64737 2.83356 0.94035
upperback -10.6152 3.73694 1.25484
thorax -14.2585 1.6001 0.27444
lowerneck -17.9818 0.526711 1.73229
upperneck 31.6721 0.921011 -4.26592
head 13.7871 -0.279143 -1.92201
rclavicle -2.80783e-014 -1.63003e-014
rhumerus -31.4395 33.4126 -81.9961
rradius 50.3983
rwrist -4.57088
rhand -29.1965 -23.4216
rfingers 7.12502
rthumb -2.54146 -53.3862
lclavicle -2.80783e-014 -1.63003e-014
lhumerus -29.591 -3.75448 78.8694
lradius 35.3612
lwrist 0.361578
lhand -26.9649 41.5902
lfingers 7.12502
lthumb -0.386175 431.57
rfemur 13.4246 21.4339 41.0199
rtibia -6.00365
rfoot -41.454 -30.0102
rtoes 17.5963
lfemur -23.6968 -36.8501 -7.78817
ltibia 3.14641
lfoot -35.4164 -3.45775
ltoes -5.24616
413
root -7.59058 15.9082 1.38678 174.919 -80.1512 -167.705
lowerback 4.64272 2.7969 0.856596
upperback -10.5793 3.68648 1.32062
thorax -14.223 1.59168 0.402284
lowerneck -18.1393 0.490034 1.56762
upperneck 31.451 0.896934 -4.14395
head 13.7233 -0.283983 -1.8417
rclavicle 1.7344e-014 3.04141e-014
rhumerus -29.2102 33.8467 -80.6894
rradius 51.2039
rwrist -4.78734
rhand -29.7023 -23.6307
rfingers 7.12502
rthumb -3.02993 -53.5889
lclavicle 1.7344e-014 3.04141e-014
lhumerus -28.0762 -4.59031 78.9176
lradius 36.333
lwrist 0.793779
lhand -27.7656 41.8207
lfingers 7.12502
lthumb -1.15949 431.797
rfemur 13.2133 20.7493 40.8055
rtibia -5.97084
rfoot -40.8063 -29.8245
rtoes 17.078
lfemur -23.7396 -37.2329 -7.61573
ltibia 2.9585
lfoot -35.6745 -3.35828
ltoes -4.58702
414
root -7.56814 15.9048 1.3786 174.365 -80.2701 -167.122
lowerback 4.58089 2.76759 0.745459
upperback -10.5578 3.64374 1.4232
thorax -14.1735 1.59181 0.58708
lowerneck -18.2464 0.4858 1.57059
upperneck 31.3051 0.887624 -4.10728
head 13.6829 -0.276662 -1.82476
rclavicle -6.4605e-016 -7.15625e-015
rhumerus -27.0011 34.1279 -79.3819
rradius 52.0511
rwrist -5.03762
rhand -30.1724 -24.1022
rfingers 7.12502
rthumb -3.48399 -54.0535
lclavicle -6.4605e-016 -7.15625e-015
lhumerus -26.6612 -5.30564 78.9688
lradius 37.6075
lwrist 1.36505
lhand -28.5655 42.045
lfingers 7.12502
lthumb -1.93207 432.016
rfemur 13.0774 20.7467 40.8939
rtibia -5.92697
rfoot -40.4001 -30.3839
rtoes 16.0734
lfemur -23.9207 -37.6867 -7.20468
ltibia 2.78899
lfoot -36.0796 -3.78448
ltoes -4.12681
415
root -7.5474 15.901 1.3728 173.713 -80.365 -166.472
lowerback 4.53441 2.75676 0.722652
upperback -10.5131 3.63497 1.49585
thorax -14.0972 1.59716 0.683577
lowerneck -18.1459 0.416182 1.73471
upperneck 30.9389 0.769879 -4.19486
head 13.4998 -0.309559 -1.89529
rclavicle -1.87355e-014 -5.1684e-015
rhumerus -24.8747 34.0973 -78.1614
rradius 52.9129
rwrist -5.21322
rhand -30.63 -24.3054
rfingers 7.12502
rthumb -3.92586 -54.249
lclavicle -1.87355e-014 -5.1684e-015
lhumerus -25.2721 -5.84461 78.9984
lradius 39.0597
lwrist 1.88599
lhand -28.6812 41.042
lfingers 7.12502
lthumb -2.04383 431.012
rfemur 12.9537 20.5861 40.945
rtibia -5.93141
rfoot -39.4453 -31.2517
rtoes 13.8123
lfemur -24.0259 -38.3628 -6.74142
ltibia 2.5215
lfoot -36.6907 -4.49202
ltoes -4.32458
416
root -7.52764 15.8961 1.37032 172.986 -80.4449 -165.686
lowerback 4.44749 2.78826 0.802647
upperback -10.4832 3.68928 1.5285
thorax -14.0038 1.61817 0.67023
lowerneck -18.1617 0.221911 1.5474
upperneck 30.5885 0.514328 -4.05259
head 13.3429 -0.412665 -1.83733
rclavicle 4.07509e-014 1.19271e-014
rhumerus -22.9368 33.6606 -77.0571
rradius 53.7853
rwrist -5.38969
rhand -31.1582 -24.2925
rfingers 7.12502
rthumb -4.43591 -54.226
lclavicle 4.07509e-014 1.19271e-014
lhumerus -23.885 -6.14646 79.1008
lradius 40.6482
lwrist 2.42611
lhand -28.8736 40.2316
lfingers 7.12502
lthumb -2.2296 430.2
rfemur 12.6967 20.081 40.8715
rtibia -5.91716
rfoot -38.0659 -31.9954
rtoes 10.418
lfemur -24.1816 -38.8422 -6.29964
ltibia 2.28715
lfoot -37.1332 -4.72228
ltoes -4.25849
417
root -7.51019 15.8917 1.36503 172.56 -80.5233 -165.164
lowerback 4.33316 2.81751 0.785047
upperback -10.4975 3.72626 1.56224
thorax -13.9531 1.6399 0.716096
lowerneck -18.0201 0.0895905 1.4877
upperneck 30.1468 0.334376 -3.99395
head 13.1195 -0.478152 -1.81834
rclavicle -8.79622e-015 -4.37326e-015
rhumerus -21.3038 32.9409 -76.1853
rradius 54.7229
rwrist -5.49153
rhand -31.6782 -24.1513
rfingers 7.12502
rthumb -4.93803 -54.0738
lclavicle -8.79622e-015 -4.37326e-015
lhumerus -22.7595 -6.31101 79.2922
lradius 42.552
lwrist 2.967
lhand -29.356 40.568
lfingers 7.12502
lthumb -2.69557 430.531
rfemur 12.5573 20.0887 40.9432
rtibia -5.9527
rfoot -38.1784 -31.9665
rtoes 10.4385
lfemur -24.4088 -39.2258 -5.8899
ltibia 2.10547
lfoot -37.4647 -5.0029
ltoes -4.25912
